PathFileType	4	(X/Y/Z)	/Users/itak/Documents/Research/Walk-IL/dataset/trc/00331_00011.trc
DataRate	CameraRate	NumFrames	NumMarkers	Units	OrigDataRate	OrigDataStartFrame	OrigNumFrames
100.000000	100.000000	4	55	mm	100.000000	99	792
Frame#	Time	RPSI			LPSI			L3			STRN			T10			C7			CLAV			RBAK			LBAK			LSHO			LUPA			LAEL			LAOL			LWTS			LWPS			LFRA			LIFD			LHPS			RSHO			RUPA			RAEL			RAOL			RWTS			RWPS			RFRA			RIFD			RHTS			RHPS			RBHD			LFHD			RFHD			LBHD			LHIP			RHIP			RASI			LASI			LKNE			LTHI			LANK			LTIP			LTOE			LMT1			LMT5			LHEE			RKNE			RTHI			RANK			RTIP			RTOE			RMT1			RMT5			RHEE			LHTS			*53			*54			
		X1	Y1	Z1	X2	Y2	Z2	X3	Y3	Z3	X4	Y4	Z4	X5	Y5	Z5	X6	Y6	Z6	X7	Y7	Z7	X8	Y8	Z8	X9	Y9	Z9	X10	Y10	Z10	X11	Y11	Z11	X12	Y12	Z12	X13	Y13	Z13	X14	Y14	Z14	X15	Y15	Z15	X16	Y16	Z16	X17	Y17	Z17	X18	Y18	Z18	X19	Y19	Z19	X20	Y20	Z20	X21	Y21	Z21	X22	Y22	Z22	X23	Y23	Z23	X24	Y24	Z24	X25	Y25	Z25	X26	Y26	Z26	X27	Y27	Z27	X28	Y28	Z28	X29	Y29	Z29	X30	Y30	Z30	X31	Y31	Z31	X32	Y32	Z32	X33	Y33	Z33	X34	Y34	Z34	X35	Y35	Z35	X36	Y36	Z36	X37	Y37	Z37	X38	Y38	Z38	X39	Y39	Z39	X40	Y40	Z40	X41	Y41	Z41	X42	Y42	Z42	X43	Y43	Z43	X44	Y44	Z44	X45	Y45	Z45	X46	Y46	Z46	X47	Y47	Z47	X48	Y48	Z48	X49	Y49	Z49	X50	Y50	Z50	X51	Y51	Z51	X52	Y52	Z52	X53	Y53	Z53	X54	Y54	Z54	X55	Y55	Z55	

100	0.99	927.3853149414062	971.2967529296875	199.7645874023438	929.57763671875	970.0303955078125	71.5792236328125	926.031494140625	1022.682678222656	139.6963500976562	1144.580444335938	1210.9130859375	125.0299911499023	904.9605102539062	1143.183715820312	130.1551208496094	942.5149536132812	1391.340454101562	111.8273162841797	1099.78564453125	1335.442016601562	118.7522964477539	895.208251953125	1254.047119140625	184.0379180908203	935.5800170898438	1352.633544921875	9.596701622009277	1023.085754394531	1371.130859375	-45.60575866699219	1013.077575683594	1249.296630859375	-111.9445495605469	1042.9228515625	1045.210693359375	-115.4264373779297	974.3024291992188	1031.234985351562	-66.61923217773438	1137.279174804688	805.3467407226562	-50.2891845703125	1107.09619140625	792.23974609375	-110.8216171264648	1062.325805664062	941.1141357421875	-116.2617263793945	1143.907348632812	645.4219970703125	-41.43674850463867	1104.526611328125	721.795654296875	-103.9411087036133	1002.830322265625	1380.391967773438	275.6465454101562	996.638427734375	1314.955200195312	341.5865783691406	1014.520446777344	1045.637329101562	372.3740539550781	964.1136474609375	1039.06884765625	293.4047241210938	1123.806884765625	821.79296875	310.2328491210938	1094.570556640625	803.405029296875	379.276123046875	1042.214233398438	978.8319702148438	377.3875732421875	1145.22998046875	648.9220581054688	314.115234375	1156.993896484375	720.8946533203125	321.0672302246094	1110.599853515625	719.9434814453125	372.481689453125	944.6759033203125	1588.814697265625	169.9722595214844	1141.784301757812	1622.388549804688	111.8844757080078	1100.463745117188	1621.440063476562	204.1779022216797	978.7487182617188	1581.830444335938	30.26702308654785	1014.729248046875	912.1233520507812	-30.81413841247559	1006.280151367188	917.2269287109375	308.6216735839844	1111.274169921875	945.9226684570312	267.7225646972656	1135.85791015625	938.9857788085938	27.94593811035156	1042.393676757812	454.3741455078125	-18.91615295410156	1051.165283203125	593.3433837890625	-28.09911918640137	950.1394653320312	40.48601913452148	-8.983891487121582	993.8103637695312	240.3113250732422	-26.16046333312988	1154.92041015625	31.18991088867188	53.61980438232422	1084.66015625	19.40577507019043	93.26731109619141	1075.3779296875	34.58486175537109	-19.0436840057373	915.3993530273438	34.40715408325195	57.33486557006836	1022.034057617188	453.96923828125	292.9996643066406	1075.658935546875	708.8908081054688	308.8099975585938	960.6253662109375	41.7862663269043	270.497314453125	1024.684326171875	335.5178833007812	285.6814270019531	1153.497314453125	33.20769500732422	215.8337554931641	1097.12890625	29.27206420898438	175.2699279785156	1061.609008789062	28.8703670501709	287.4944152832031	909.0382080078125	42.82838439941406	223.3021697998047	1152.748657226562	726.910400390625	-62.2525520324707	nan	nan	nan	nan	nan	nan	
101	1	927.3078002929688	971.2892456054688	199.7234802246094	929.5122680664062	970.0299682617188	71.53953552246094	925.9945068359375	1022.675537109375	139.6593627929688	1144.486206054688	1210.904541015625	125.0047836303711	904.8082885742188	1143.184448242188	130.0966644287109	942.4120483398438	1391.345947265625	111.7580795288086	1099.703735351562	1335.482543945312	118.653564453125	895.105712890625	1254.018676757812	184.0110778808594	935.485107421875	1352.622680664062	9.545123100280762	1022.91455078125	1371.107055664062	-45.64337539672852	1012.885925292969	1249.26953125	-112.0149383544922	1042.783447265625	1045.2080078125	-115.552131652832	974.2567138671875	1031.215576171875	-66.68588256835938	1137.260620117188	805.3723754882812	-50.37747573852539	1107.10986328125	792.2728881835938	-110.9175338745117	1062.258422851562	941.1268310546875	-116.3817977905273	1143.937255859375	645.3775024414062	-41.55305099487305	1104.57275390625	721.8208618164062	-104.1082992553711	1002.6806640625	1380.379150390625	275.5726013183594	996.5011596679688	1314.979858398438	341.4963989257812	1014.290588378906	1045.663818359375	372.3013610839844	964.0337524414062	1039.089111328125	293.3612670898438	1123.616577148438	821.7817993164062	310.2307434082031	1094.384765625	803.4584350585938	379.2732238769531	1042.04345703125	978.7794189453125	377.2758178710938	1144.987426757812	648.9776000976562	314.1133422851562	1156.796630859375	720.906005859375	321.1282348632812	1110.422241210938	719.8370361328125	372.3770751953125	944.77880859375	1588.732055664062	170.5709991455078	1141.533325195312	1622.457153320312	111.4251708984375	1100.79248046875	1621.337768554688	203.9490814208984	978.0361328125	1582.005249023438	30.6560115814209	1014.644897460938	912.181884765625	-30.93707847595215	1006.188537597656	917.2612915039062	308.5979309082031	1111.18212890625	945.9852905273438	267.6698303222656	1135.765991210938	939.0537719726562	27.81207656860352	1042.263305664062	454.3621826171875	-18.96523475646973	1051.009887695312	593.364990234375	-28.09994888305664	950.1357421875	40.48192596435547	-8.98106575012207	993.7501220703125	240.3072967529297	-26.15045356750488	1154.914428710938	31.19649314880371	53.61975479125977	1084.657470703125	19.40172958374023	93.27047729492188	1075.374633789062	34.59296417236328	-19.04283714294434	915.38525390625	34.39321517944336	57.32925033569336	1022.013061523438	453.9702453613281	292.9892578125	1075.628173828125	708.9313354492188	308.7534790039062	960.62548828125	41.78321075439453	270.4993896484375	1024.652099609375	335.5233764648438	285.6725463867188	1153.495361328125	33.20488739013672	215.8357543945312	1097.128295898438	29.27432441711426	175.2710876464844	1061.607666015625	28.87207794189453	287.4988708496094	909.0372314453125	42.82321166992188	223.3061065673828	1152.744140625	726.8560791015625	-62.31379699707031	nan	nan	nan	nan	nan	nan	
102	1.01	927.239501953125	971.2861938476562	199.6864013671875	929.4462890625	970.0341186523438	71.50077056884766	925.954345703125	1022.670593261719	139.6252593994141	1144.394775390625	1210.895141601562	124.9673233032227	904.6734008789062	1143.18798828125	130.0461883544922	942.3085327148438	1391.35107421875	111.6856231689453	1099.622314453125	1335.519897460938	118.5546035766602	895.0073852539062	1253.994506835938	183.9813232421875	935.388671875	1352.615234375	9.487957954406738	1022.734008789062	1371.075073242188	-45.69027709960938	1012.692077636719	1249.235717773438	-112.0866165161133	1042.635620117188	1045.196411132812	-115.6773300170898	974.2064819335938	1031.192138671875	-66.74982452392578	1137.240478515625	805.391845703125	-50.45117568969727	1107.117919921875	792.3037719726562	-111.014030456543	1062.183837890625	941.1337280273438	-116.5033798217773	1143.967041015625	645.3157958984375	-41.64892578125	1104.613403320312	721.8424682617188	-104.2614364624023	1002.540832519531	1380.369262695312	275.5014038085938	996.3917846679688	1315.012451171875	341.4195251464844	1014.078674316406	1045.701782226562	372.2539367675781	963.9542236328125	1039.113403320312	293.316650390625	1123.4375	821.77392578125	310.22900390625	1094.207153320312	803.5144653320312	379.2682495117188	1041.882202148438	978.7249755859375	377.1588439941406	1144.735229492188	649.0274658203125	314.1012878417969	1156.590209960938	720.9176025390625	321.2025451660156	1110.257690429688	719.73583984375	372.2732238769531	944.8052368164062	1588.637451171875	171.0885467529297	1141.279296875	1622.533935546875	111.0683517456055	1101.034545898438	1621.246704101562	203.771728515625	977.4063110351562	1582.172729492188	30.99516868591309	1014.557312011719	912.2413940429688	-31.07553863525391	1006.115112304688	917.2922973632812	308.5689697265625	1111.103149414062	946.0475463867188	267.6205139160156	1135.6708984375	939.122802734375	27.66269683837891	1042.101318359375	454.3507690429688	-19.01721000671387	1050.82958984375	593.3824462890625	-28.10084533691406	950.130615234375	40.47659683227539	-8.979408264160156	993.6802978515625	240.3030242919922	-26.14068031311035	1154.90673828125	31.20422744750977	53.61925506591797	1084.655151367188	19.39788627624512	93.27338409423828	1075.370361328125	34.60189819335938	-19.04254531860352	915.3702392578125	34.37794876098633	57.32472610473633	1021.987121582031	453.9692993164062	292.9766235351562	1075.615600585938	708.9685668945312	308.6917419433594	960.6250610351562	41.78094482421875	270.5010986328125	1024.615844726562	335.5307006835938	285.6661987304688	1153.493896484375	33.20230484008789	215.8376312255859	1097.127685546875	29.27652168273926	175.2717590332031	1061.605346679688	28.87411689758301	287.50390625	909.0361328125	42.81782913208008	223.3102111816406	1152.740112304688	726.8002319335938	-62.3768310546875	nan	nan	nan	nan	nan	nan	
103	1.02	927.1785278320312	971.2882690429688	199.6540679931641	929.3756103515625	970.0430297851562	71.46299743652344	925.909912109375	1022.668212890625	139.5937805175781	1144.306396484375	1210.88671875	124.9167785644531	904.5567016601562	1143.193237304688	130.0030212402344	942.202880859375	1391.355590820312	111.6089477539062	1099.539428710938	1335.552490234375	118.4574737548828	894.9124755859375	1253.976806640625	183.9456939697266	935.28955078125	1352.610717773438	9.424703598022461	1022.549560546875	1371.038330078125	-45.74868011474609	1012.503173828125	1249.19873046875	-112.1593551635742	1042.484619140625	1045.17822265625	-115.8009414672852	974.151611328125	1031.16650390625	-66.81233215332031	1137.218994140625	805.4073486328125	-50.51387023925781	1107.118286132812	792.3323364257812	-111.1115570068359	1062.102905273438	941.1357421875	-116.6249389648438	1143.994995117188	645.2417602539062	-41.72819519042969	1104.648071289062	721.8646240234375	-104.4008560180664	1002.411437988281	1380.362915039062	275.4322509765625	996.3121337890625	1315.053955078125	341.360595703125	1013.890197753906	1045.745361328125	372.226318359375	963.8771362304688	1039.140747070312	293.2720947265625	1123.271362304688	821.7694091796875	310.2279663085938	1094.041870117188	803.57080078125	379.2603759765625	1041.731567382812	978.6727905273438	377.0407409667969	1144.4814453125	649.0693969726562	314.0819091796875	1156.379272460938	720.9295043945312	321.2869873046875	1110.103881835938	719.6488037109375	372.1772155761719	944.7537231445312	1588.532592773438	171.5207366943359	1141.025146484375	1622.615234375	110.8158874511719	1101.183959960938	1621.167114257812	203.6476287841797	976.8634643554688	1582.329956054688	31.27994918823242	1014.466125488281	912.2991943359375	-31.22612190246582	1006.059509277344	917.3186645507812	308.5339050292969	1111.035522460938	946.1068115234375	267.5747680664062	1135.572143554688	939.1900634765625	27.50119209289551	1041.910278320312	454.3394775390625	-19.07367324829102	1050.624633789062	593.3956298828125	-28.1038646697998	950.1237182617188	40.46991729736328	-8.979057312011719	993.6033325195312	240.2980804443359	-26.13182830810547	1154.897338867188	31.21265029907227	53.61809158325195	1084.653198242188	19.39450454711914	93.27581787109375	1075.365356445312	34.61104583740234	-19.04293060302734	915.3552856445312	34.36142730712891	57.32201766967773	1021.955078125	453.9667053222656	292.9613952636719	1075.620971679688	709.0010986328125	308.6239318847656	960.6239624023438	41.77999496459961	270.5020141601562	1024.576171875	335.5397033691406	285.6618957519531	1153.493286132812	33.20052719116211	215.8392639160156	1097.127319335938	29.27860641479492	175.2720947265625	1061.601806640625	28.87651443481445	287.5093688964844	909.0347900390625	42.81229019165039	223.31396484375	1152.736083984375	726.7454223632812	-62.44502639770508	nan	nan	nan	nan	nan	nan	
